<svg width="18" height="19" viewBox="0 0 18 19" fill="none" xmlns="http://www.w3.org/2000/svg">
<path d="M0.599999 1.93507H2.5248L4.64579 10.6926C4.18324 10.7294 3.75333 10.9388 3.44624 11.2768C3.13915 11.6148 2.97875 12.0552 2.9987 12.5056C3.01865 12.956 3.21739 13.3814 3.55322 13.6925C3.88906 14.0037 4.3359 14.1764 4.79999 14.1745H15C15.1591 14.1745 15.3117 14.1131 15.4242 14.0038C15.5368 13.8945 15.6 13.7462 15.6 13.5916C15.6 13.4371 15.5368 13.2888 15.4242 13.1795C15.3117 13.0702 15.1591 13.0088 15 13.0088H4.79999C4.64086 13.0088 4.48825 12.9474 4.37573 12.8381C4.26321 12.7288 4.19999 12.5806 4.19999 12.426C4.19999 12.2714 4.26321 12.1232 4.37573 12.0139C4.48825 11.9046 4.64086 11.8432 4.79999 11.8432H14.9292C15.3352 11.8442 15.7295 11.7114 16.0477 11.4665C16.3659 11.2217 16.5893 10.8792 16.6812 10.4951L17.9526 5.24961C18.0147 4.99293 18.0163 4.72591 17.9572 4.46854C17.8981 4.21117 17.7799 3.97012 17.6113 3.76343C17.4427 3.55674 17.2282 3.38977 16.9838 3.275C16.7394 3.16024 16.4714 3.10066 16.2 3.10072H4.03979L3.58439 1.21877C3.55341 1.09083 3.47882 0.976827 3.37274 0.895254C3.26665 0.813682 3.1353 0.769334 3 0.769409H0.599999C0.440869 0.769409 0.288257 0.830814 0.175736 0.940116C0.063214 1.04942 0 1.19766 0 1.35224C0 1.50681 0.063214 1.65506 0.175736 1.76436C0.288257 1.87366 0.440869 1.93507 0.599999 1.93507ZM16.2 4.26638C16.2899 4.26805 16.3783 4.28902 16.4589 4.32779C16.5395 4.36656 16.6102 4.42217 16.6661 4.49063C16.722 4.5591 16.7615 4.63872 16.782 4.72379C16.8024 4.80885 16.8032 4.89726 16.7844 4.98268L15.5124 10.2281C15.482 10.3562 15.4078 10.4704 15.3018 10.552C15.1958 10.6337 15.0644 10.6779 14.9292 10.6775H5.87519L4.31999 4.26638H16.2ZM11.4 16.5058C11.4 16.8516 11.5056 17.1896 11.7033 17.4772C11.9011 17.7647 12.1822 17.9888 12.5112 18.1212C12.8401 18.2535 13.202 18.2881 13.5511 18.2207C13.9003 18.1532 14.221 17.9867 14.4728 17.7421C14.7245 17.4976 14.8959 17.1861 14.9654 16.8469C15.0348 16.5077 14.9992 16.1562 14.863 15.8367C14.7267 15.5172 14.496 15.2441 14.2 15.052C13.904 14.8598 13.556 14.7573 13.2 14.7573C12.7226 14.7573 12.2648 14.9415 11.9272 15.2694C11.5896 15.5973 11.4 16.0421 11.4 16.5058ZM13.8 16.5058C13.8 16.6211 13.7648 16.7337 13.6989 16.8296C13.6329 16.9254 13.5392 17.0001 13.4296 17.0442C13.32 17.0884 13.1993 17.0999 13.0829 17.0774C12.9665 17.0549 12.8596 16.9994 12.7757 16.9179C12.6918 16.8364 12.6347 16.7325 12.6115 16.6195C12.5884 16.5064 12.6002 16.3892 12.6457 16.2827C12.6911 16.1762 12.768 16.0852 12.8666 16.0212C12.9653 15.9571 13.0813 15.923 13.2 15.923C13.3591 15.923 13.5117 15.9844 13.6242 16.0937C13.7368 16.203 13.8 16.3512 13.8 16.5058ZM4.79999 16.5058C4.79999 16.8516 4.90556 17.1896 5.10335 17.4772C5.30113 17.7647 5.58225 17.9888 5.91116 18.1212C6.24007 18.2535 6.60199 18.2881 6.95115 18.2207C7.30032 18.1532 7.62105 17.9867 7.87278 17.7421C8.12452 17.4976 8.29595 17.1861 8.3654 16.8469C8.43485 16.5077 8.39921 16.1562 8.26297 15.8367C8.12673 15.5172 7.89602 15.2441 7.60002 15.052C7.30401 14.8598 6.956 14.7573 6.59999 14.7573C6.1226 14.7573 5.66476 14.9415 5.3272 15.2694C4.98963 15.5973 4.79999 16.0421 4.79999 16.5058ZM7.19999 16.5058C7.19999 16.6211 7.1648 16.7337 7.09887 16.8296C7.03294 16.9254 6.93924 17.0001 6.8296 17.0442C6.71996 17.0884 6.59932 17.0999 6.48294 17.0774C6.36655 17.0549 6.25964 16.9994 6.17573 16.9179C6.09182 16.8364 6.03467 16.7325 6.01152 16.6195C5.98837 16.5064 6.00025 16.3892 6.04566 16.2827C6.09108 16.1762 6.16798 16.0852 6.26665 16.0212C6.36532 15.9571 6.48132 15.923 6.59999 15.923C6.75912 15.923 6.91173 15.9844 7.02425 16.0937C7.13678 16.203 7.19999 16.3512 7.19999 16.5058Z" fill="black"/>
</svg>
