<svg width="1920" height="920" viewBox="0 0 1920 920" fill="none" xmlns="http://www.w3.org/2000/svg">
<path d="M0 5.00003C0 2.2386 2.23858 0 5 0H1920V920H5.00004C2.23861 920 0 917.761 0 915V5.00003Z" fill="#F4F4F4"/>
<g opacity="0.05">
<path d="M295.6 703.2C264.8 703.2 237.2 698.2 212.8 688.2C188.4 678.2 168.8 663.4 154 643.8C139.6 624.2 132 600.6 131.2 573H240.4C242 588.6 247.4 600.6 256.6 609C265.8 617 277.8 621 292.6 621C307.8 621 319.8 617.6 328.6 610.8C337.4 603.6 341.8 593.8 341.8 581.4C341.8 571 338.2 562.4 331 555.6C324.2 548.8 315.6 543.2 305.2 538.8C295.2 534.4 280.8 529.4 262 523.8C234.8 515.4 212.6 507 195.4 498.6C178.2 490.2 163.4 477.8 151 461.4C138.6 445 132.4 423.6 132.4 397.2C132.4 358 146.6 327.4 175 305.4C203.4 283 240.4 271.8 286 271.8C332.4 271.8 369.8 283 398.2 305.4C426.6 327.4 441.8 358.2 443.8 397.8H332.8C332 384.2 327 373.6 317.8 366C308.6 358 296.8 354 282.4 354C270 354 260 357.4 252.4 364.2C244.8 370.6 241 380 241 392.4C241 406 247.4 416.6 260.2 424.2C273 431.8 293 440 320.2 448.8C347.4 458 369.4 466.8 386.2 475.2C403.4 483.6 418.2 495.8 430.6 511.8C443 527.8 449.2 548.4 449.2 573.6C449.2 597.6 443 619.4 430.6 639C418.6 658.6 401 674.2 377.8 685.8C354.6 697.4 327.2 703.2 295.6 703.2ZM723.541 703.2C683.941 703.2 647.541 694 614.341 675.6C581.541 657.2 555.341 631.6 535.741 598.8C516.541 565.6 506.941 528.4 506.941 487.2C506.941 446 516.541 409 535.741 376.2C555.341 343.4 581.541 317.8 614.341 299.4C647.541 281 683.941 271.8 723.541 271.8C763.141 271.8 799.341 281 832.141 299.4C865.341 317.8 891.341 343.4 910.141 376.2C929.341 409 938.941 446 938.941 487.2C938.941 528.4 929.341 565.6 910.141 598.8C890.941 631.6 864.941 657.2 832.141 675.6C799.341 694 763.141 703.2 723.541 703.2ZM723.541 609.6C757.141 609.6 783.941 598.4 803.941 576C824.341 553.6 834.541 524 834.541 487.2C834.541 450 824.341 420.4 803.941 398.4C783.941 376 757.141 364.8 723.541 364.8C689.541 364.8 662.341 375.8 641.941 397.8C621.941 419.8 611.941 449.6 611.941 487.2C611.941 524.4 621.941 554.2 641.941 576.6C662.341 598.6 689.541 609.6 723.541 609.6ZM1384.82 699H1282.22L1110.62 439.2V699H1008.02L1008.02 277.8L1110.62 277.8L1282.22 538.8V277.8H1384.82V699ZM1832.39 277.8L1686.59 559.8V699H1583.99V559.8L1438.19 277.8H1554.59L1636.19 454.2L1717.19 277.8L1832.39 277.8Z" fill="#242328"/>
<path d="M212.8 688.2L212.421 689.125L212.8 688.2ZM154 643.8L153.194 644.392L153.202 644.403L154 643.8ZM131.2 573V572H130.171L130.2 573.029L131.2 573ZM240.4 573L241.395 572.898L241.303 572H240.4V573ZM256.6 609L255.926 609.738L255.935 609.747L255.944 609.755L256.6 609ZM328.6 610.8L329.211 611.591L329.222 611.583L329.233 611.574L328.6 610.8ZM331 555.6L330.293 556.307L330.303 556.317L330.313 556.327L331 555.6ZM305.2 538.8L304.797 539.715L304.804 539.718L304.81 539.721L305.2 538.8ZM262 523.8L261.705 524.755L261.715 524.758L262 523.8ZM151 461.4L151.798 460.797L151 461.4ZM175 305.4L175.612 306.191L175.619 306.185L175 305.4ZM398.2 305.4L397.581 306.185L397.588 306.191L398.2 305.4ZM443.8 397.8V398.8H444.852L444.799 397.75L443.8 397.8ZM332.8 397.8L331.802 397.859L331.857 398.8H332.8V397.8ZM317.8 366L317.144 366.755L317.153 366.763L317.163 366.771L317.8 366ZM252.4 364.2L253.044 364.965L253.056 364.955L253.067 364.945L252.4 364.2ZM260.2 424.2L260.711 423.34L260.2 424.2ZM320.2 448.8L320.52 447.853L320.508 447.849L320.2 448.8ZM386.2 475.2L385.753 476.094L385.761 476.099L386.2 475.2ZM430.6 511.8L429.81 512.413L430.6 511.8ZM430.6 639L429.755 638.465L429.751 638.472L429.747 638.478L430.6 639ZM377.8 685.8L377.353 684.906L377.8 685.8ZM295.6 702.2C264.909 702.2 237.44 697.218 213.179 687.275L212.421 689.125C236.96 699.182 264.691 704.2 295.6 704.2V702.2ZM213.179 687.275C188.933 677.338 169.482 662.644 154.798 643.197L153.202 644.403C168.118 664.156 187.867 679.062 212.421 689.125L213.179 687.275ZM154.806 643.208C140.542 623.793 132.995 600.396 132.2 572.971L130.2 573.029C131.005 600.804 138.658 624.607 153.194 644.392L154.806 643.208ZM131.2 574H240.4V572H131.2V574ZM239.405 573.102C241.024 588.881 246.501 601.133 255.926 609.738L257.274 608.262C248.299 600.067 242.976 588.319 241.395 572.898L239.405 573.102ZM255.944 609.755C265.363 617.945 277.613 622 292.6 622V620C277.987 620 266.237 616.055 257.256 608.245L255.944 609.755ZM292.6 622C307.941 622 320.182 618.569 329.211 611.591L327.989 610.009C319.418 616.631 307.659 620 292.6 620V622ZM329.233 611.574C338.288 604.165 342.8 594.069 342.8 581.4H340.8C340.8 593.531 336.512 603.035 327.967 610.026L329.233 611.574ZM342.8 581.4C342.8 570.74 339.098 561.872 331.687 554.873L330.313 556.327C337.302 562.928 340.8 571.26 340.8 581.4H342.8ZM331.707 554.893C324.802 547.987 316.088 542.321 305.59 537.879L304.81 539.721C315.112 544.079 323.598 549.613 330.293 556.307L331.707 554.893ZM305.603 537.885C295.546 533.46 281.099 528.446 262.285 522.842L261.715 524.758C280.501 530.354 294.854 535.34 304.797 539.715L305.603 537.885ZM262.295 522.845C235.123 514.453 212.976 506.071 195.839 497.701L194.961 499.499C212.224 507.929 234.477 516.347 261.705 524.755L262.295 522.845ZM195.839 497.701C178.79 489.375 164.11 477.081 151.798 460.797L150.202 462.003C162.69 478.519 177.61 491.025 194.961 499.499L195.839 497.701ZM151.798 460.797C139.562 444.614 133.4 423.445 133.4 397.2H131.4C131.4 423.755 137.638 445.386 150.202 462.003L151.798 460.797ZM133.4 397.2C133.4 358.277 147.481 327.982 175.612 306.191L174.388 304.609C145.719 326.818 131.4 357.723 131.4 397.2H133.4ZM175.619 306.185C203.801 283.957 240.565 272.8 286 272.8V270.8C240.235 270.8 202.999 282.043 174.381 304.615L175.619 306.185ZM286 272.8C332.24 272.8 369.402 283.96 397.581 306.185L398.819 304.615C370.198 282.04 332.56 270.8 286 270.8V272.8ZM397.588 306.191C425.731 327.992 440.814 358.508 442.801 397.85L444.799 397.75C442.786 357.892 427.469 326.808 398.812 304.609L397.588 306.191ZM443.8 396.8H332.8V398.8H443.8V396.8ZM333.798 397.741C332.985 383.907 327.882 373.032 318.437 365.229L317.163 366.771C326.118 374.168 331.016 384.493 331.802 397.859L333.798 397.741ZM318.456 365.245C309.042 357.059 296.995 353 282.4 353V355C296.605 355 308.158 358.941 317.144 366.755L318.456 365.245ZM282.4 353C269.81 353 259.554 356.457 251.733 363.455L253.067 364.945C260.446 358.343 270.19 355 282.4 355V353ZM251.756 363.435C243.876 370.071 240 379.785 240 392.4H242C242 380.215 245.724 371.129 253.044 364.965L251.756 363.435ZM240 392.4C240 406.391 246.621 417.3 259.689 425.06L260.711 423.34C248.179 415.9 242 405.609 242 392.4H240ZM259.689 425.06C272.588 432.718 292.674 440.945 319.892 449.751L320.508 447.849C293.327 439.055 273.412 430.882 260.711 423.34L259.689 425.06ZM319.88 449.747C347.056 458.939 369.009 467.723 385.753 476.094L386.647 474.306C369.791 465.877 347.744 457.061 320.52 447.853L319.88 449.747ZM385.761 476.099C402.816 484.428 417.498 496.526 429.81 512.413L431.39 511.187C418.902 495.074 403.984 482.772 386.639 474.301L385.761 476.099ZM429.81 512.413C442.043 528.198 448.2 548.566 448.2 573.6H450.2C450.2 548.234 443.957 527.402 431.39 511.187L429.81 512.413ZM448.2 573.6C448.2 597.418 442.05 619.031 429.755 638.465L431.445 639.535C443.95 619.769 450.2 597.782 450.2 573.6H448.2ZM429.747 638.478C417.857 657.898 400.408 673.378 377.353 684.906L378.247 686.694C401.592 675.022 419.343 659.302 431.453 639.522L429.747 638.478ZM377.353 684.906C354.319 696.423 327.078 702.2 295.6 702.2V704.2C327.322 704.2 354.881 698.377 378.247 686.694L377.353 684.906ZM614.341 675.6L613.851 676.472L613.856 676.475L614.341 675.6ZM535.741 598.8L534.875 599.301L534.879 599.307L534.882 599.313L535.741 598.8ZM535.741 376.2L534.882 375.687L534.878 375.695L535.741 376.2ZM614.341 299.4L613.856 298.525L613.851 298.528L614.341 299.4ZM832.141 299.4L831.651 300.272L831.656 300.275L832.141 299.4ZM910.141 376.2L909.273 376.697L909.278 376.705L910.141 376.2ZM910.141 598.8L911.004 599.305L911.006 599.301L910.141 598.8ZM832.141 675.6L832.63 676.472L832.141 675.6ZM803.941 576L803.201 575.327L803.195 575.334L803.941 576ZM803.941 398.4L803.195 399.066L803.201 399.073L803.207 399.08L803.941 398.4ZM641.941 397.8L641.207 397.12L641.201 397.127L641.941 397.8ZM641.941 576.6L641.195 577.266L641.201 577.273L641.207 577.28L641.941 576.6ZM723.541 702.2C684.103 702.2 647.871 693.039 614.825 674.725L613.856 676.475C647.211 694.961 683.779 704.2 723.541 704.2V702.2ZM614.83 674.728C582.185 656.415 556.111 630.94 536.599 598.287L534.882 599.313C554.57 632.26 580.897 657.985 613.851 676.472L614.83 674.728ZM536.606 598.299C517.501 565.263 507.941 528.238 507.941 487.2H505.941C505.941 528.562 515.58 565.937 534.875 599.301L536.606 598.299ZM507.941 487.2C507.941 446.162 517.501 409.339 536.604 376.705L534.878 375.695C515.58 408.661 505.941 445.838 505.941 487.2H507.941ZM536.599 376.713C556.111 344.06 582.185 318.585 614.83 300.272L613.851 298.528C580.897 317.015 554.57 342.74 534.882 375.687L536.599 376.713ZM614.825 300.275C647.871 281.96 684.103 272.8 723.541 272.8V270.8C683.779 270.8 647.211 280.04 613.856 298.525L614.825 300.275ZM723.541 272.8C762.979 272.8 799.009 281.96 831.651 300.272L832.63 298.528C799.672 280.04 763.303 270.8 723.541 270.8V272.8ZM831.656 300.275C864.697 318.587 890.564 344.056 909.273 376.697L911.008 375.703C892.117 342.744 865.984 317.013 832.625 298.525L831.656 300.275ZM909.278 376.705C928.38 409.339 937.941 446.162 937.941 487.2H939.941C939.941 445.838 930.301 408.661 911.004 375.695L909.278 376.705ZM937.941 487.2C937.941 528.238 928.38 565.263 909.275 598.299L911.006 599.301C930.301 565.937 939.941 528.562 939.941 487.2H937.941ZM909.278 598.295C890.166 630.943 864.295 656.416 831.651 674.728L832.63 676.472C865.587 657.984 891.715 632.257 911.004 599.305L909.278 598.295ZM831.651 674.728C799.009 693.04 762.979 702.2 723.541 702.2V704.2C763.303 704.2 799.672 694.96 832.63 676.472L831.651 674.728ZM723.541 610.6C757.388 610.6 784.473 599.305 804.687 576.666L803.195 575.334C783.408 597.495 756.893 608.6 723.541 608.6V610.6ZM804.68 576.673C825.282 554.051 835.541 524.193 835.541 487.2H833.541C833.541 523.807 823.399 553.148 803.201 575.327L804.68 576.673ZM835.541 487.2C835.541 449.811 825.284 419.947 804.674 397.72L803.207 399.08C823.397 420.853 833.541 450.189 833.541 487.2H835.541ZM804.687 397.734C784.473 375.095 757.388 363.8 723.541 363.8V365.8C756.893 365.8 783.408 376.905 803.195 399.066L804.687 397.734ZM723.541 363.8C689.303 363.8 661.823 374.888 641.207 397.12L642.674 398.48C662.859 376.712 689.778 365.8 723.541 365.8V363.8ZM641.201 397.127C620.992 419.356 610.941 449.419 610.941 487.2H612.941C612.941 449.78 622.889 420.244 642.681 398.473L641.201 397.127ZM610.941 487.2C610.941 524.585 620.995 554.642 641.195 577.266L642.687 575.934C622.887 553.758 612.941 524.215 612.941 487.2H610.941ZM641.207 577.28C661.823 599.512 689.303 610.6 723.541 610.6V608.6C689.778 608.6 662.859 597.688 642.674 575.92L641.207 577.28ZM1384.82 699V700H1385.82V699H1384.82ZM1282.22 699L1281.39 699.551L1281.68 700H1282.22V699ZM1110.62 439.2L1111.45 438.649L1109.62 435.872V439.2H1110.62ZM1110.62 699V700H1111.62V699H1110.62ZM1008.02 699H1007.02V700H1008.02V699ZM1008.02 277.8V276.8H1007.02V277.8H1008.02ZM1110.62 277.8L1111.46 277.251L1111.16 276.8H1110.62V277.8ZM1282.22 538.8L1281.38 539.349L1283.22 542.141V538.8H1282.22ZM1282.22 277.8V276.8H1281.22V277.8H1282.22ZM1384.82 277.8H1385.82V276.8H1384.82V277.8ZM1384.82 698H1282.22V700H1384.82V698ZM1283.05 698.449L1111.45 438.649L1109.79 439.751L1281.39 699.551L1283.05 698.449ZM1109.62 439.2V699H1111.62V439.2H1109.62ZM1110.62 698H1008.02V700H1110.62V698ZM1009.02 699L1009.02 277.8H1007.02L1007.02 699H1009.02ZM1008.02 278.8L1110.62 278.8V276.8L1008.02 276.8V278.8ZM1109.78 278.349L1281.38 539.349L1283.06 538.251L1111.46 277.251L1109.78 278.349ZM1283.22 538.8V277.8H1281.22V538.8H1283.22ZM1282.22 278.8H1384.82V276.8H1282.22V278.8ZM1383.82 277.8V699H1385.82V277.8H1383.82ZM1832.39 277.8L1833.28 278.259L1834.04 276.8H1832.39V277.8ZM1686.59 559.8L1685.7 559.341L1685.59 559.557V559.8H1686.59ZM1686.59 699V700H1687.59V699H1686.59ZM1583.99 699H1582.99V700H1583.99V699ZM1583.99 559.8H1584.99V559.557L1584.88 559.341L1583.99 559.8ZM1438.19 277.8V276.8H1436.55L1437.3 278.259L1438.19 277.8ZM1554.59 277.8L1555.5 277.38L1555.23 276.8H1554.59V277.8ZM1636.19 454.2L1635.28 454.62L1636.2 456.589L1637.1 454.617L1636.19 454.2ZM1717.19 277.8V276.8H1716.55L1716.28 277.383L1717.19 277.8ZM1831.5 277.341L1685.7 559.341L1687.48 560.259L1833.28 278.259L1831.5 277.341ZM1685.59 559.8V699H1687.59V559.8H1685.59ZM1686.59 698H1583.99V700H1686.59V698ZM1584.99 699V559.8H1582.99V699H1584.99ZM1584.88 559.341L1439.08 277.341L1437.3 278.259L1583.1 560.259L1584.88 559.341ZM1438.19 278.8H1554.59V276.8H1438.19V278.8ZM1553.68 278.22L1635.28 454.62L1637.1 453.78L1555.5 277.38L1553.68 278.22ZM1637.1 454.617L1718.1 278.217L1716.28 277.383L1635.28 453.783L1637.1 454.617ZM1717.19 278.8L1832.39 278.8V276.8L1717.19 276.8V278.8Z" fill="black"/>
</g>
</svg>
