<svg width="100" height="100" viewBox="0 0 100 100" fill="none" xmlns="http://www.w3.org/2000/svg">
<g opacity="0.5">
<circle cx="50" cy="50" r="50" transform="matrix(-1 0 0 1 100 0)" fill="white"/>
<path d="M54.2991 62.5758L43.0491 51.3258C42.875 51.1517 42.7369 50.945 42.6426 50.7175C42.5484 50.49 42.4999 50.2462 42.4999 50C42.4999 49.7537 42.5484 49.5099 42.6426 49.2824C42.7369 49.0549 42.875 48.8482 43.0491 48.6741L54.2991 37.4241C54.6507 37.0725 55.1277 36.8749 55.625 36.8749C56.1222 36.8749 56.5992 37.0725 56.9508 37.4241C57.3025 37.7758 57.5 38.2527 57.5 38.75C57.5 39.2473 57.3025 39.7242 56.9508 40.0758L47.0266 50L56.9508 59.9241C57.3025 60.2758 57.5 60.7527 57.5 61.25C57.5 61.7473 57.3025 62.2242 56.9508 62.5758C56.5992 62.9275 56.1222 63.125 55.625 63.125C55.1277 63.125 54.6507 62.9275 54.2991 62.5758Z" fill="black"/>
</g>
</svg>
