<svg width="20" height="20" viewBox="0 0 20 20" fill="none" xmlns="http://www.w3.org/2000/svg">
<g clip-path="url(#clip0_304_4483)">
<path d="M16.6375 17.9632V19.6552C16.6375 19.8457 16.4832 20 16.2928 20H3.70807C3.51757 20 3.36328 19.8457 3.36328 19.6552V17.9632C3.36328 16.188 4.80233 14.7498 6.57798 14.7493C7.20549 14.7489 7.75801 14.4261 8.07607 13.9365C8.39561 13.4454 8.36268 13.0184 8.36268 12.6733L8.36914 12.6574C6.82192 12.0169 5.73368 10.4925 5.73368 8.71387V8.57897C5.11932 8.57897 4.65623 8.09347 4.65623 7.52134V5.73017C4.64244 5.10654 4.67088 2.90724 6.25948 1.37596C8.10667 -0.40443 11.0339 -0.258758 13.1543 0.693713C13.2233 0.724744 13.2211 0.823439 13.1513 0.852315L12.5984 1.07987C12.5156 1.11392 12.5333 1.23589 12.6221 1.24537L12.8906 1.27425C14.1762 1.41173 15.3705 2.10992 16.1109 3.27185C16.1307 3.30331 16.1251 3.35115 16.0997 3.3783C15.6423 3.86251 15.3875 4.50339 15.3877 5.16947V7.52134C15.3877 8.10532 14.914 8.57897 14.3301 8.57897H14.2671V8.71387C14.2671 10.4925 13.1789 12.0169 11.6317 12.6574L11.6381 12.6733C11.6381 13.0085 11.6025 13.4413 11.9247 13.9365C12.2428 14.4261 12.7953 14.7489 13.4228 14.7493C15.1985 14.7498 16.6375 16.188 16.6375 17.9632Z" fill="#FFDFBA"/>
<path d="M16.6375 17.9632V19.6552C16.6375 19.7467 16.6012 19.8344 16.5366 19.899C16.4719 19.9637 16.3842 20 16.2928 20H3.70807C3.61662 20 3.52893 19.9637 3.46427 19.899C3.39961 19.8344 3.36328 19.7467 3.36328 19.6552V17.9632C3.36328 16.188 4.80255 14.75 6.57776 14.7494C7.20545 14.7491 7.7581 14.4259 8.07607 13.9365C9.18603 14.8848 10.8141 14.8853 11.9247 13.9365C12.2427 14.4259 12.7954 14.7491 13.4231 14.7494C15.1983 14.75 16.6375 16.188 16.6375 17.9632Z" fill="#FE994F"/>
<path d="M16.1125 3.27204C16.1325 3.30346 16.1269 3.35104 16.1013 3.37811C15.6441 3.86246 15.3894 4.50335 15.3895 5.16944V7.52131C15.3895 8.05521 14.9872 8.57894 14.2689 8.57894V5.91676C14.2689 4.77423 13.3427 3.84805 12.2002 3.84805H7.80418C6.66164 3.84805 5.73546 4.77423 5.73546 5.91676V8.57894C5.1211 8.57894 4.65801 8.09344 4.65801 7.52131V5.73015C4.64421 5.10652 4.67266 2.90721 6.26126 1.37593C8.10832 -0.404498 11.0359 -0.25874 13.1559 0.693818C13.2249 0.724805 13.2231 0.823543 13.1531 0.852333L12.6002 1.07998C12.5175 1.11403 12.5349 1.23586 12.6238 1.24539L12.8924 1.27422C14.1782 1.41158 15.3721 2.10977 16.1125 3.27204Z" fill="#42434D"/>
<path d="M14.2678 8.71381C14.2678 11.0711 12.3565 12.9805 10.0011 12.9805C7.78189 12.9805 5.73438 11.2553 5.73438 8.57892V5.91674C5.73438 4.7742 6.66056 3.84802 7.80309 3.84802H12.1991C13.3416 3.84802 14.2678 4.7742 14.2678 5.91674V8.71381Z" fill="#FFEBD2"/>
<path d="M13.4924 19.2673H12.4581C12.3666 19.2673 12.2789 19.231 12.2143 19.1663C12.1496 19.1017 12.1133 19.014 12.1133 18.9225C12.1133 18.8311 12.1496 18.7434 12.2143 18.6787C12.2789 18.6141 12.3666 18.5778 12.4581 18.5778H13.4924C13.5839 18.5778 13.6716 18.6141 13.7362 18.6787C13.8009 18.7434 13.8372 18.8311 13.8372 18.9225C13.8372 19.014 13.8009 19.1017 13.7362 19.1663C13.6716 19.231 13.5839 19.2673 13.4924 19.2673Z" fill="white"/>
<path d="M9.03501 11.4691C9.73652 11.9079 9.18336 12.9842 8.41543 12.676C6.83657 12.0423 5.73438 10.5037 5.73438 8.71389V5.91681C5.73372 5.49872 5.86032 5.09033 6.09735 4.74592C6.37809 4.33765 7.02732 4.51802 7.02732 5.05485V7.85193C7.02732 9.42544 7.85447 10.7305 9.03501 11.4691Z" fill="#FFF3E4"/>
<path d="M11.6854 13.381C10.6236 13.8254 9.45667 13.8599 8.3125 13.381C8.37094 13.1385 8.3612 12.9814 8.3612 12.6733L8.36767 12.6573C9.40556 13.0882 10.5903 13.089 11.6302 12.6573L11.6367 12.6733C11.6367 12.9816 11.6269 13.1386 11.6854 13.381Z" fill="#FFD6A6"/>
<path d="M8.31449 15.7905C8.15512 15.8406 7.98419 15.8682 7.80094 15.8698C6.02115 15.8855 4.57003 17.2928 4.57003 19.0727V19.3966C4.57003 19.7299 4.29989 20 3.96666 20H3.70807C3.61662 20 3.52893 19.9637 3.46427 19.899C3.39961 19.8344 3.36328 19.7467 3.36328 19.6552V17.9632C3.36328 16.1879 4.80255 14.75 6.57776 14.7494C7.20545 14.7491 7.7581 14.4259 8.07607 13.9365C8.20418 14.0459 8.34132 14.1443 8.48602 14.2305C9.12185 14.6094 9.02053 15.5685 8.31449 15.7905Z" fill="#FFA26D"/>
<path d="M11.6879 15.7905C11.8473 15.8406 12.0182 15.8682 12.2014 15.8698C13.9812 15.8855 15.4323 17.2928 15.4323 19.0727V19.3966C15.4323 19.7299 15.7025 20 16.0357 20H16.2943C16.3858 20 16.4734 19.9637 16.5381 19.899C16.6028 19.8344 16.6391 19.7467 16.6391 19.6552V17.9632C16.6391 16.1879 15.1998 14.75 13.4246 14.7494C12.7969 14.7491 12.2443 14.4259 11.9263 13.9365C11.7982 14.0459 11.6611 14.1443 11.5163 14.2305C10.8806 14.6094 10.9818 15.5685 11.6879 15.7905Z" fill="#E88248"/>
<path d="M13.1531 0.852315C12.6464 1.06087 12.5741 1.10685 12.3985 1.07961C9.5681 0.640875 7.08478 1.81198 6.24144 4.56135V4.56178C5.91442 4.93737 5.73465 5.41878 5.73546 5.91679V7.53397C5.73546 8.23164 4.65801 8.28021 4.65801 7.52134V5.73017C4.64421 5.10654 4.67266 2.90724 6.26126 1.37596C8.10845 -0.40443 11.0357 -0.258758 13.1561 0.693713C13.2251 0.724744 13.2229 0.823439 13.1531 0.852315Z" fill="#4D4E59"/>
</g>
<defs>
<clipPath id="clip0_304_4483">
<rect width="20" height="20" fill="white"/>
</clipPath>
</defs>
</svg>
