<svg width="100" height="100" viewBox="0 0 100 100" fill="none" xmlns="http://www.w3.org/2000/svg">
<g opacity="0.5">
<circle cx="50" cy="50" r="50" fill="white"/>
<path d="M45.7009 62.5758L56.9509 51.3258C57.125 51.1517 57.2631 50.945 57.3574 50.7175C57.4516 50.49 57.5001 50.2462 57.5001 50C57.5001 49.7537 57.4516 49.5099 57.3574 49.2824C57.2631 49.0549 57.125 48.8482 56.9509 48.6741L45.7009 37.4241C45.3493 37.0725 44.8723 36.8749 44.375 36.8749C43.8778 36.8749 43.4008 37.0725 43.0492 37.4241C42.6975 37.7758 42.5 38.2527 42.5 38.75C42.5 39.2473 42.6975 39.7242 43.0492 40.0758L52.9734 50L43.0492 59.9241C42.6975 60.2758 42.5 60.7527 42.5 61.25C42.5 61.7473 42.6975 62.2242 43.0492 62.5758C43.4008 62.9275 43.8778 63.125 44.375 63.125C44.8723 63.125 45.3493 62.9275 45.7009 62.5758Z" fill="black"/>
</g>
</svg>
