<svg width="120" height="20" viewBox="0 0 120 20" fill="none" xmlns="http://www.w3.org/2000/svg">
<path d="M10 16.3626L3.82021 20L5.20021 12.6958L0 7.63958L7.03321 6.76248L10 0L12.9668 6.76248L20 7.63958L14.7998 12.6958L16.1798 20L10 16.3626Z" fill="#FEA700"/>
<path d="M35 16.3626L28.8202 20L30.2002 12.6958L25 7.63958L32.0332 6.76248L35 0L37.9668 6.76248L45 7.63958L39.7998 12.6958L41.1798 20L35 16.3626Z" fill="#FEA700"/>
<path d="M60 16.3626L53.8202 20L55.2002 12.6958L50 7.63958L57.0332 6.76248L60 0L62.9668 6.76248L70 7.63958L64.7998 12.6958L66.1798 20L60 16.3626Z" fill="#FEA700"/>
<path d="M85 16.3626L78.8202 20L80.2002 12.6958L75 7.63958L82.0332 6.76248L85 0L87.9668 6.76248L95 7.63958L89.7998 12.6958L91.1798 20L85 16.3626Z" fill="#FEA700"/>
<path d="M110 16.3626L103.82 20L105.2 12.6958L100 7.63958L107.033 6.76248L110 0L112.967 6.76248L120 7.63958L114.8 12.6958L116.18 20L110 16.3626Z" fill="black"/>
</svg>
