<svg width="18" height="17" viewBox="0 0 18 17" fill="none" xmlns="http://www.w3.org/2000/svg">
<path d="M8.9995 16.0214C8.74322 16.0214 8.49623 15.9286 8.30369 15.7599C7.57656 15.1241 6.87555 14.5266 6.25704 13.9996L6.25388 13.9969C4.44055 12.4516 2.87467 11.1171 1.78517 9.8025C0.567285 8.33294 0 6.9395 0 5.41728C0 3.93834 0.507136 2.5739 1.42786 1.57516C2.35959 0.564619 3.63805 0.00805664 5.02815 0.00805664C6.06714 0.00805664 7.01862 0.336538 7.85617 0.984291C8.27883 1.31123 8.66195 1.71139 8.9995 2.17813C9.33715 1.71139 9.72016 1.31123 10.143 0.984291C10.9805 0.336538 11.932 0.00805664 12.971 0.00805664C14.3609 0.00805664 15.6395 0.564619 16.5713 1.57516C17.492 2.5739 17.999 3.93834 17.999 5.41728C17.999 6.93946 17.4318 8.33291 16.214 9.80236C15.1244 11.1171 13.5587 12.4514 11.7456 13.9966C11.126 14.5245 10.4239 15.1229 9.69516 15.7602C9.50257 15.9287 9.25537 16.0215 8.9995 16.0214ZM5.02815 1.0624C3.93605 1.0624 2.93278 1.49828 2.20291 2.28978C1.46221 3.09327 1.05421 4.20393 1.05421 5.41728C1.05421 6.69753 1.53002 7.8425 2.59688 9.12978C3.62803 10.374 5.16177 11.6811 6.93763 13.1945L6.9409 13.1972C7.56172 13.7263 8.26551 14.3261 8.99798 14.9666C9.73485 14.3249 10.4397 13.7241 11.0618 13.1942C12.8375 11.6808 14.3711 10.374 15.4023 9.12978C16.469 7.8425 16.9448 6.69753 16.9448 5.41728C16.9448 4.2039 16.5368 3.09323 15.7961 2.28978C15.0664 1.49828 14.063 1.0624 12.971 1.0624C12.1709 1.0624 11.4364 1.31675 10.7878 1.81822C10.2099 2.26535 9.80724 2.83056 9.57114 3.22604C9.44979 3.42941 9.23612 3.5508 8.9995 3.5508C8.76287 3.5508 8.54921 3.42941 8.42782 3.22604C8.19193 2.83056 7.78928 2.26535 7.21113 1.81822C6.5626 1.31675 5.82805 1.0624 5.02815 1.0624Z" fill="black"/>
</svg>
